<svg xmlns="http://www.w3.org/2000/svg" id="sv" width="180" height="180" viewBox="0 0 180 180"><path id="0" fill="#cccccc" d="M90, 0 A90,90 0 0 1 147.8495478611357,21.054878256237956 L128.56636524075714,44.03658550415864 A60,60 0 0 0 90,30 Z"></path><path id="1" fill="#eee555" d="M147.8495478611357, 21.054878256237956 A90,90 0 0 1 120.78837309877026,174.5699478652489 L110.52558206584685,146.37996524349927 A60,60 0 0 0 128.56636524075714,44.03658550415864 Z"></path><path id="2" fill="#8888c4" d="M120.78837309877026, 174.5699478652489 A90,90 0 0 1 1.369272909124561,105.63950815539792 L30.91284860608304,100.42633877026529 A60,60 0 0 0 110.52558206584685,146.37996524349927 Z"></path><path id="3" fill="#eab777" d="M1.369272909124561, 105.63950815539792 A90,90 0 0 1 89.98429203681187,0.0000013707783779182137 L89.98952802454124,30.000000913852254 A60,60 0 0 0 30.91284860608304,100.42633877026529 Z"></path></svg>