<svg height="auto" viewBox="0 0 2000 1400" xmlns="http://www.w3.org/2000/svg"><path d="M0 1400h228.571v-5.76q0-26-26-26H26q-26 0-26 26ZM285.714 1400h228.572v-191.142q0-26-26-26H311.714q-26 0-26 26ZM571.429 1400H800v-245.447q0-26-26-26H597.429q-26 0-26 26ZM857.143 1400h228.571V864.54q0-26-26-26H883.143q-26 0-26 26ZM1142.857 1400h228.572V568.222q0-26-26-26h-176.572q-26 0-26 26ZM1428.571 1400h228.572V640.842q0-26-26-26H1454.57q-26 0-26 26ZM1714.286 1400h228.571V506.6q0-26-26-26h-176.571q-26 0-26 26Z" fill="#444cf7"/></svg>